<svg width="20" height="20" viewBox="0 0 20 20" fill="none" xmlns="http://www.w3.org/2000/svg">
<path d="M2.50008 2.5H17.5001C17.7211 2.5 17.9331 2.5878 18.0893 2.74408C18.2456 2.90036 18.3334 3.11232 18.3334 3.33333V16.6667C18.3334 16.8877 18.2456 17.0996 18.0893 17.2559C17.9331 17.4122 17.7211 17.5 17.5001 17.5H2.50008C2.27907 17.5 2.06711 17.4122 1.91083 17.2559C1.75455 17.0996 1.66675 16.8877 1.66675 16.6667V3.33333C1.66675 3.11232 1.75455 2.90036 1.91083 2.74408C2.06711 2.5878 2.27907 2.5 2.50008 2.5ZM5.83342 10.8333V14.1667H7.50008V10.8333H5.83342ZM9.16675 5.83333V14.1667H10.8334V5.83333H9.16675ZM12.5001 8.33333V14.1667H14.1667V8.33333H12.5001Z" fill="#A6A7B4"/>
</svg>
