<svg width="20" height="20" viewBox="0 0 20 20" fill="none" xmlns="http://www.w3.org/2000/svg">
<path d="M7.77492 9.58335H9.58325C10.5778 9.58335 11.5316 9.97844 12.2349 10.6817C12.9382 11.385 13.3333 12.3388 13.3333 13.3334H7.49909L7.49992 14.1667H14.1666V13.3334C14.164 12.4467 13.9078 11.5792 13.4283 10.8334H15.8333C16.621 10.8331 17.3926 11.0562 18.0587 11.4767C18.7248 11.8972 19.258 12.4979 19.5966 13.2092C17.6258 15.81 14.4349 17.5 10.8333 17.5C8.53242 17.5 6.58325 17.0084 4.99992 16.1459V8.39252C6.01376 8.53775 6.97115 8.94859 7.77492 9.58335V9.58335ZM4.16659 15.8334C4.16659 16.0544 4.07879 16.2663 3.92251 16.4226C3.76623 16.5789 3.55427 16.6667 3.33325 16.6667H1.66659C1.44557 16.6667 1.23361 16.5789 1.07733 16.4226C0.921049 16.2663 0.833252 16.0544 0.833252 15.8334V8.33335C0.833252 8.11234 0.921049 7.90038 1.07733 7.7441C1.23361 7.58782 1.44557 7.50002 1.66659 7.50002H3.33325C3.55427 7.50002 3.76623 7.58782 3.92251 7.7441C4.07879 7.90038 4.16659 8.11234 4.16659 8.33335V15.8334ZM14.9999 4.16669C15.663 4.16669 16.2988 4.43008 16.7677 4.89892C17.2365 5.36776 17.4999 6.00365 17.4999 6.66669C17.4999 7.32973 17.2365 7.96561 16.7677 8.43445C16.2988 8.9033 15.663 9.16669 14.9999 9.16669C14.3369 9.16669 13.701 8.9033 13.2322 8.43445C12.7633 7.96561 12.4999 7.32973 12.4999 6.66669C12.4999 6.00365 12.7633 5.36776 13.2322 4.89892C13.701 4.43008 14.3369 4.16669 14.9999 4.16669ZM9.16659 1.66669C9.82963 1.66669 10.4655 1.93008 10.9344 2.39892C11.4032 2.86776 11.6666 3.50365 11.6666 4.16669C11.6666 4.82973 11.4032 5.46561 10.9344 5.93445C10.4655 6.40329 9.82963 6.66669 9.16659 6.66669C8.50354 6.66669 7.86766 6.40329 7.39882 5.93445C6.92998 5.46561 6.66659 4.82973 6.66659 4.16669C6.66659 3.50365 6.92998 2.86776 7.39882 2.39892C7.86766 1.93008 8.50354 1.66669 9.16659 1.66669V1.66669Z" fill="#A6A7B4"/>
</svg>
