<svg width="24" height="24" viewBox="0 0 24 24" fill="none" xmlns="http://www.w3.org/2000/svg">
<g clip-path="url(#clip0_7_158)">
<path d="M23.8439 7.09313C23.7445 5.62125 22.365 3.94969 20.8762 3.70688C14.9841 2.70328 9.04077 5.39953 3.04499 4.87313C1.5689 4.75875 0.272334 5.61703 0.167334 7.09313C-0.048291 10.3645 -0.048291 13.6355 0.167334 16.9069C0.266709 18.3788 1.64624 20.0498 3.13499 20.2931C9.02718 21.2967 14.9705 18.6005 20.9662 19.1269C22.4423 19.2417 23.7389 18.3825 23.8439 16.9069C24.0595 13.6355 24.0595 10.3645 23.8439 7.09313Z" fill="#ECA19F"/>
<path d="M3.04509 4.87313C1.56899 4.75875 0.272431 5.61703 0.167432 7.09313C0.0718066 8.54063 0.0188379 9.9886 0.00805664 11.4361C0.0188379 12.8841 0.0722753 14.3325 0.167432 15.7805C0.181494 15.9919 0.223213 16.207 0.286494 16.4217C1.93931 17.1858 3.78009 17.6128 5.72071 17.6128C12.8827 17.6128 18.6887 11.8069 18.6887 4.64484C18.6887 4.25578 18.6713 3.87047 18.638 3.48984C13.4799 3.33422 8.2829 5.33297 3.04509 4.87313Z" fill="#F4C7C7"/>
<path d="M11.3565 11.0564C11.5295 11.227 11.7601 11.3217 12.0053 11.3217C12.6104 11.3217 13.1818 11.557 13.614 11.985C14.0448 12.4205 14.282 12.9933 14.282 13.5984C14.282 14.2036 14.0467 14.7717 13.6192 15.2039C13.3557 15.465 13.0337 15.6586 12.684 15.7678V16.1902C12.684 16.5642 12.3798 16.8684 12.0057 16.8684C11.6317 16.8684 11.3274 16.5642 11.3274 16.1902V15.7678C10.9782 15.6591 10.6576 15.4669 10.3974 15.2086C9.96666 14.7731 9.72947 14.2012 9.72947 13.598C9.72947 13.2239 10.0337 12.9197 10.4078 12.9197C10.7818 12.9197 11.086 13.2239 11.086 13.598C11.086 13.8412 11.1821 14.0728 11.357 14.2495C11.702 14.5908 12.3113 14.5894 12.6596 14.2444C12.8307 14.0709 12.9254 13.8412 12.9254 13.598C12.9254 13.3547 12.8293 13.1203 12.6545 12.9436C12.4815 12.773 12.2509 12.6783 12.0057 12.6783C11.4006 12.6783 10.8292 12.443 10.397 12.015C9.96619 11.5795 9.729 11.0067 9.729 10.4016C9.729 9.7964 9.96432 9.22828 10.3918 8.79609C10.6553 8.535 10.9773 8.3414 11.327 8.23219V7.80984C11.327 7.43578 11.6312 7.13156 12.0053 7.13156C12.3793 7.13156 12.6835 7.43578 12.6835 7.80984V8.23312C13.6276 8.52844 14.2815 9.41156 14.2815 10.4016C14.2815 10.7756 13.9773 11.0798 13.6032 11.0798C13.2292 11.0798 12.9249 10.7756 12.9249 10.4016C12.9249 9.89578 12.5124 9.48469 12.0053 9.48469C11.7601 9.48469 11.5276 9.58078 11.3513 9.75516C11.1803 9.92859 11.0856 10.1583 11.0856 10.4016C11.0856 10.6448 11.1817 10.8792 11.3565 11.0559V11.0564Z" fill="white"/>
</g>
<defs>
<clipPath id="clip0_7_158">
<rect width="24" height="24" fill="white"/>
</clipPath>
</defs>
</svg>
