<svg width="17" height="16" viewBox="0 0 17 16" fill="none" xmlns="http://www.w3.org/2000/svg">
<path fill-rule="evenodd" clip-rule="evenodd" d="M6.33333 7.16667C8.17167 7.16667 9.66667 5.67167 9.66667 3.83333C9.66667 1.995 8.17167 0.5 6.33333 0.5C4.495 0.5 3 1.995 3 3.83333C3 5.67167 4.495 7.16667 6.33333 7.16667ZM15.5 3H14.6667V2.16667C14.6667 1.70833 14.2917 1.33333 13.8333 1.33333C13.375 1.33333 13 1.70833 13 2.16667V3H12.1667C11.7083 3 11.3333 3.375 11.3333 3.83333C11.3333 4.29167 11.7083 4.66667 12.1667 4.66667H13V5.5C13 5.95833 13.375 6.33333 13.8333 6.33333C14.2917 6.33333 14.6667 5.95833 14.6667 5.5V4.66667H15.5C15.9583 4.66667 16.3333 4.29167 16.3333 3.83333C16.3333 3.375 15.9583 3 15.5 3ZM12.1667 14.6667C12.1667 15.1267 11.7942 15.5 11.3333 15.5H1.33333C0.8725 15.5 0.5 15.1267 0.5 14.6667C0.5 11.45 3.1175 8.83333 6.33333 8.83333C9.54917 8.83333 12.1667 11.45 12.1667 14.6667Z" fill="#A6A7B4"/>
</svg>
