<svg width="19" height="20" viewBox="0 0 19 20" fill="none" xmlns="http://www.w3.org/2000/svg">
<path fill-rule="evenodd" clip-rule="evenodd" d="M0.40184 1.49994C-8.39233e-05 2.19609 -8.39233e-05 3.13071 -8.39233e-05 4.99994L-8.39233e-05 14.9999C-8.39233e-05 16.8692 -8.39233e-05 17.8038 0.40184 18.4999C0.665145 18.956 1.04386 19.3347 1.49992 19.598C2.19607 19.9999 3.13068 19.9999 4.99992 19.9999C6.86915 19.9999 7.80376 19.9999 8.49992 19.598C8.95597 19.3347 9.33469 18.956 9.59799 18.4999C9.99992 17.8038 9.99992 16.8692 9.99992 14.9999V10.7501L16.1894 10.7501L13.4698 13.4698C13.1769 13.7627 13.1769 14.2375 13.4698 14.5304C13.7627 14.8233 14.2375 14.8233 14.5304 14.5304L18.5304 10.5304C18.8233 10.2375 18.8233 9.76265 18.5304 9.46976L14.5304 5.46976C14.2375 5.17687 13.7627 5.17687 13.4698 5.46976C13.1769 5.76265 13.1769 6.23753 13.4698 6.53042L16.1894 9.25009L9.99992 9.25009L9.99992 4.99994C9.99992 3.13071 9.99992 2.19609 9.59799 1.49994C9.33469 1.04388 8.95597 0.665168 8.49992 0.401863C7.80376 -6.10352e-05 6.86915 -6.10352e-05 4.99992 -6.10352e-05C3.13068 -6.10352e-05 2.19607 -6.10352e-05 1.49992 0.401863C1.04386 0.665168 0.665145 1.04388 0.40184 1.49994ZM9.99992 9.25009L5.0001 9.25009C4.58589 9.25009 4.2501 9.58588 4.2501 10.0001C4.2501 10.4143 4.58589 10.7501 5.0001 10.7501L9.99992 10.7501V9.25009Z" fill="black"/>
</svg>
