<svg width="24" height="24" viewBox="0 0 24 24" fill="none" xmlns="http://www.w3.org/2000/svg">
<g clip-path="url(#clip0_7_175)">
<path d="M6.2316 22.568C7.54551 21.2541 7.54551 19.1166 6.2316 17.8031C4.91769 16.4892 2.78019 16.4892 1.46675 17.8031C0.529251 18.7406 0.160344 20.1924 0.0426877 21.5077C-0.0660624 22.725 0.0511252 23.7028 0.055344 23.7441C0.0755002 23.9306 0.254563 23.9724 0.2855 23.978C0.288313 23.9784 0.291125 23.9789 0.294407 23.9789C0.369875 23.9817 1.4466 24.0033 1.77847 22.9547C1.85019 22.7283 1.93972 22.5469 2.03816 22.4016C2.25519 22.0814 2.75535 22.2745 2.70003 22.657C2.62363 23.1858 2.81628 23.6072 2.93441 23.8078C2.98082 23.8866 3.07035 23.9288 3.16035 23.9152C4.28628 23.7431 5.44129 23.3574 6.23113 22.567L6.2316 22.568Z" fill="#FAAB48"/>
<path d="M23.9926 2.11781C23.9227 0.947812 23.087 0.111561 21.917 0.0421864C17.9434 -0.194532 13.5151 1.49062 10.0614 4.94391L9.14027 5.865C8.80839 6.19688 8.49339 6.53813 8.19433 6.88641H5.29043C4.67402 6.91032 4.1284 7.26563 3.82043 7.78735L2.11324 11.2017C2.0659 11.3203 2.04199 11.4389 2.01855 11.5809C2.01855 12.0314 2.39777 12.4106 2.84824 12.4106H5.00636C4.72699 13.3528 4.91355 14.2791 5.51168 14.8772L9.15667 18.5222C9.7548 19.1203 10.6815 19.3069 11.6232 19.0275V21.1856C11.6232 21.6361 12.0024 22.0158 12.4529 22.0153C12.5954 21.9914 12.7135 21.968 12.8321 21.9206L16.2465 20.2134C16.7682 19.905 17.124 19.3599 17.1474 18.7434V15.8395C17.4962 15.5405 17.837 15.2255 18.1688 14.8936L19.0899 13.9725C22.5437 10.5188 24.2284 6.09047 23.9917 2.11688L23.9926 2.11781ZM20.0153 8.88938C18.6704 10.2342 16.4903 10.2342 15.1454 8.88938C13.8006 7.54453 13.8006 5.36438 15.1454 4.01953C16.4903 2.67469 18.6704 2.67469 20.0153 4.01953C21.3601 5.36438 21.3601 7.54453 20.0153 8.88938Z" fill="#ECA19F"/>
<path d="M22.8928 8.31938C23.7389 6.25922 24.112 4.13016 23.9925 2.11781C23.9226 0.947812 23.0868 0.111561 21.9168 0.0421864C17.9432 -0.194533 13.515 1.49063 10.0612 4.94391L9.14011 5.86501C8.80824 6.19688 8.49324 6.53813 8.19417 6.88641H5.29027C4.75448 6.90704 4.27308 7.17844 3.95386 7.59094C4.15776 7.82626 4.37011 8.05641 4.5937 8.28001C9.64496 13.3313 17.8256 13.3439 22.8933 8.31891L22.8928 8.31938ZM15.1453 4.01953C16.4901 2.67469 18.6703 2.67469 20.0151 4.01953C21.36 5.36438 21.36 7.54454 20.0151 8.88938C18.6703 10.2342 16.4901 10.2342 15.1453 8.88938C13.8004 7.54454 13.8004 5.36438 15.1453 4.01953Z" fill="#F4C7C7"/>
</g>
<defs>
<clipPath id="clip0_7_175">
<rect width="24" height="24" fill="white"/>
</clipPath>
</defs>
</svg>
