<svg width="24" height="24" viewBox="0 0 24 24" fill="none" xmlns="http://www.w3.org/2000/svg">
<g clip-path="url(#clip0_7_138)">
<path d="M23.1886 10.1616C22.8122 9.80297 22.4349 9.44109 22.0566 9.0764C21.533 8.57203 21.2283 7.89047 21.2021 7.18969C21.1829 6.68344 21.1608 6.17719 21.136 5.67047C21.0591 4.21734 19.7888 2.94703 18.3357 2.87016C17.8294 2.84531 17.3232 2.82281 16.8164 2.80406C16.1157 2.77781 15.4341 2.47266 14.9297 1.94953C14.565 1.57125 14.2032 1.19391 13.8446 0.8175C12.8096 -0.271874 11.2027 -0.271874 10.1677 0.8175C9.8091 1.19391 9.44722 1.57125 9.08253 1.94953C8.57816 2.47312 7.8966 2.77781 7.19581 2.80406C6.68956 2.82328 6.18331 2.84531 5.67659 2.87016C4.22347 2.94703 2.95316 4.21734 2.87628 5.67047C2.85144 6.17672 2.82894 6.68297 2.81019 7.18969C2.78394 7.89047 2.47878 8.57203 1.95566 9.0764C1.57737 9.44109 1.20003 9.80297 0.823624 10.1616C-0.265752 11.1966 -0.265752 12.8034 0.823624 13.8384C1.20003 14.197 1.57737 14.5589 1.95566 14.9236C2.47925 15.428 2.78394 16.1095 2.81019 16.8103C2.82941 17.3166 2.85144 17.8228 2.87628 18.3295C2.95316 19.7826 4.22347 21.053 5.67659 21.1298C6.18285 21.1547 6.68956 21.1772 7.19581 21.1959C7.8966 21.2222 8.57816 21.5273 9.08253 22.0505C9.44722 22.4287 9.8091 22.8061 10.1677 23.1825C11.2027 24.2719 12.8096 24.2719 13.8446 23.1825C14.2032 22.8061 14.565 22.4287 14.9297 22.0505C15.4341 21.5269 16.1157 21.2222 16.8164 21.1959C17.3227 21.1767 17.8289 21.1547 18.3357 21.1298C19.7888 21.053 21.0591 19.7826 21.136 18.3295C21.1608 17.8233 21.1833 17.317 21.2021 16.8103C21.2283 16.1095 21.5335 15.428 22.0566 14.9236C22.4349 14.5589 22.8122 14.197 23.1886 13.8384C24.278 12.8034 24.278 11.1966 23.1886 10.1616Z" fill="#ECA19F"/>
<path d="M10.1672 0.81703C9.8086 1.19344 9.44673 1.57078 9.08204 1.94906C8.57766 2.47265 7.8961 2.77734 7.19532 2.80359C6.68907 2.82281 6.18282 2.84484 5.6761 2.86969C4.22298 2.94656 2.95267 4.21687 2.87579 5.67C2.85095 6.17625 2.82845 6.6825 2.8097 7.18921C2.78345 7.88999 2.47829 8.57156 1.95517 9.07593C1.57688 9.44062 1.19954 9.80249 0.823135 10.1611C-0.26624 11.1961 -0.26624 12.803 0.823135 13.838C1.19954 14.1966 1.57688 14.5584 1.95517 14.9231C2.47876 15.4275 2.78345 16.1091 2.8097 16.8098C2.82892 17.3161 2.85095 17.8223 2.87579 18.3291C2.87767 18.3614 2.88048 18.3937 2.88329 18.4261C3.79641 18.63 4.7461 18.7378 5.72063 18.7378C12.8827 18.7378 18.6886 12.9319 18.6886 5.76984C18.6886 4.77328 18.5756 3.80297 18.3628 2.87109C18.3534 2.87062 18.3445 2.86922 18.3352 2.86875C17.8289 2.8439 17.3227 2.8214 16.8159 2.80265C16.1152 2.7764 15.4336 2.47125 14.9292 1.94812C14.5645 1.56984 14.2027 1.1925 13.8441 0.816092C12.8091 -0.273282 11.2022 -0.273282 10.1672 0.816092V0.81703Z" fill="#F4C7C7"/>
<path d="M17.287 12.832C16.7821 12.2995 16.1737 12.0342 15.4753 12.0342C14.7768 12.0342 14.1721 12.3038 13.6631 12.833C13.154 13.3627 12.9042 14.0048 12.9103 14.7623C12.9159 15.5278 13.1714 16.177 13.6668 16.7058C14.1628 17.2345 14.7548 17.5017 15.4504 17.5003C16.1568 17.4989 16.7587 17.2327 17.2612 16.7067C17.7637 16.1808 18.0262 15.5325 18.0351 14.7563C18.044 14.0048 17.7951 13.3641 17.287 12.832ZM16.1226 15.5498C15.9492 15.7542 15.7321 15.8569 15.4701 15.8573C15.1973 15.8573 14.9765 15.7561 14.804 15.5602C14.6315 15.36 14.5448 15.0989 14.5443 14.7684C14.5439 14.4586 14.6339 14.2055 14.8106 14.01C14.9873 13.8103 15.21 13.7123 15.4739 13.7119C15.734 13.7119 15.9525 13.8131 16.1287 14.0086C16.3012 14.2078 16.3865 14.4605 16.3851 14.7661C16.3832 15.0839 16.2956 15.3455 16.1221 15.5498H16.1226Z" fill="white"/>
<path d="M10.3879 7.24688C9.90462 6.72657 9.32478 6.48 8.63618 6.5011C7.95181 6.52219 7.34525 6.80766 6.81556 7.33969C6.28634 7.87172 6.00275 8.50078 5.97791 9.23391C5.95259 9.97453 6.18978 10.5966 6.68337 11.1052C7.17697 11.6133 7.78259 11.8692 8.49228 11.873C9.21368 11.873 9.8254 11.6152 10.3298 11.0962C10.8346 10.5773 11.092 9.93047 11.1027 9.15609C11.1135 8.40609 10.8749 7.76766 10.3879 7.24735V7.24688ZM9.17946 9.94922C9.00321 10.1522 8.7829 10.2544 8.51946 10.2567C8.24431 10.2591 8.02353 10.1616 7.85384 9.97172C7.68415 9.77812 7.60353 9.52453 7.61243 9.20156C7.62087 8.89875 7.71931 8.64984 7.90165 8.45438C8.08447 8.25516 8.30853 8.15391 8.57009 8.14828C8.83165 8.14266 9.0454 8.235 9.21228 8.42906C9.37915 8.62313 9.45931 8.87156 9.45321 9.17391C9.44665 9.48797 9.35618 9.74672 9.17946 9.94969V9.94922Z" fill="white"/>
<path d="M14.9131 6.60047H14.9018C14.6426 6.60047 14.405 6.73594 14.255 6.96891C12.4109 9.84703 10.4745 12.7373 8.71577 15.5273C8.47624 15.9075 8.58358 16.4372 8.95108 16.7156C9.31905 16.9941 9.80373 16.9134 10.0419 16.5305C11.7936 13.7231 13.7234 10.8286 15.5595 7.95938C15.927 7.38938 15.5454 6.60047 14.9136 6.60047H14.9131Z" fill="white"/>
</g>
<defs>
<clipPath id="clip0_7_138">
<rect width="24" height="24" fill="white"/>
</clipPath>
</defs>
</svg>
