<svg width="24" height="24" viewBox="0 0 24 24" fill="none" xmlns="http://www.w3.org/2000/svg">
<g clip-path="url(#clip0_7_121)">
<path d="M18.8466 4.70531C18.2536 3.02906 16.7428 1.69453 15.0225 1.47422C13.8126 1.32328 12.1617 1.19953 9.90421 1.23C7.64671 1.26375 5.99296 1.43437 4.77937 1.61719C2.77499 1.93359 0.984365 3.69703 0.640303 5.71594C0.640303 5.71594 0.109209 8.565 0.00561523 12.4012H19.4362C19.4362 12.4012 19.4362 7.32047 18.8466 4.70531Z" fill="black"/>
<path d="M23.806 9.50203C23.5772 7.7175 21.9877 6.20765 20.1277 5.96015C16.8497 5.63531 12.0066 5.60859 12.0057 5.62031C9.91083 5.59875 5.00676 5.79843 3.88364 5.96015C2.74645 6.10687 1.71848 6.73406 1.03035 7.5975V7.59843C0.591135 8.15156 0.29301 8.80218 0.205353 9.50203C0.0717594 10.5806 -0.0332407 12.0548 0.0201969 14.0709C0.0769157 16.0875 0.262072 17.5645 0.451447 18.6469C0.777228 20.438 2.38879 22.0111 4.18223 22.3125C5.26879 22.5197 9.99051 22.8075 12.0061 22.7709C14.0218 22.808 18.7435 22.5201 19.83 22.3125C21.6235 22.0111 23.2351 20.438 23.5608 18.6469C23.7497 17.5641 23.9349 16.087 23.9921 14.0709C24.0455 12.0544 23.9401 10.5806 23.8069 9.50203H23.806Z" fill="#ECA19F"/>
<path d="M19.8179 15.8583C18.9001 15.8583 18.1558 15.1144 18.1558 14.1961C18.1558 13.2778 18.8997 12.5339 19.8179 12.5339C20.7362 12.5339 21.4801 13.2778 21.4801 14.1961C21.4801 15.1144 20.7362 15.8583 19.8179 15.8583Z" fill="white"/>
<path d="M18.6957 5.84203C15.6033 5.62875 12.0061 5.61 12.0052 5.62031C9.91033 5.59875 5.00627 5.79844 3.88315 5.96015C2.74596 6.10687 1.71799 6.73406 1.02987 7.5975V7.59844C0.590646 8.15156 0.292521 8.80219 0.204865 9.50203C0.0712711 10.5806 -0.0337289 12.0548 0.0197086 14.0709C0.0604898 15.5166 0.167365 16.6847 0.293927 17.6297C1.92471 18.3614 3.73221 18.7687 5.63533 18.7687C12.8039 18.7687 18.623 12.9937 18.6957 5.84203Z" fill="#F4C7C7"/>
</g>
<defs>
<clipPath id="clip0_7_121">
<rect width="24" height="24" fill="white"/>
</clipPath>
</defs>
</svg>
